# xmcd CD database file
#
# Track frame offsets:
#	150
#	13468
#	23581
#	39503
#	52353
#	67484
#	81247
#	97691
#	109663
#	121546
#	133328
#	147413
#	161721
#	177799
#	191862
#	207193
#
# Disc length: 2932 seconds
#
# Revision: 0
# Processed by: cddbd v1.5PL3 Copyright (c) Steve Scherf et al.
# Submitted via: CDex 1.50
#
DISCID=eb0b7210
DTITLE=Charlie Barnet - Skyliner
DYEAR=2003
DGENRE=Jazz
TTITLE0=Undecided
TTITLE1=I Want To Be A Rug Cutter
TTITLE2=The Gal From Joe's
TTITLE3=West End Blues
TTITLE4=Pompton Turnpike
TTITLE5=Skyliner
TTITLE6=Echoes Of Harlem
TTITLE7=You Always Hurt The One You Love
TTITLE8=Charleston Alley
TTITLE9=Redskin Rhumba
TTITLE10=No Name Jive Part 1
TTITLE11=No Name Jive Part 2
TTITLE12=The Count's Idea
TTITLE13=The Duke's Idea
TTITLE14=Cherokee
TTITLE15=Ebony Rhapsody
EXTD=YEAR: 2003
EXTT0=
EXTT1=
EXTT2=
EXTT3=
EXTT4=
EXTT5=
EXTT6=
EXTT7=
EXTT8=
EXTT9=
EXTT10=
EXTT11=
EXTT12=
EXTT13=
EXTT14=
EXTT15=
PLAYORDER=
